<svg width="640" height="850" viewBox="0 0 640 850" fill="none" xmlns="http://www.w3.org/2000/svg">
<path d="M-263.759 577.095L-142.242 79.6931C-128.899 25.0754 -74.7481 -7.41539 -13.7453 2.59446L654.295 112.212C732.588 125.059 788.766 201.167 771.715 271.291L650.41 770.172C636.844 825.967 580.797 858.548 518.595 846.8L347.162 814.421C269.372 799.728 215.186 723.129 233.564 653.835L348.377 220.938C355.325 194.744 369.413 171.456 347.391 150.26C325.466 129.158 290.999 176.158 283.99 202.204L158.239 669.53C143.634 723.808 88.486 755.121 27.4636 743.785L-168.01 707.473C-231.405 695.697 -276.495 634.3 -263.759 577.095Z" fill="#F5F8FF"/>
</svg>
